<?xml version="1.0" encoding="UTF-8" standalone="no"?>
<!-- Created with Inkscape (http://www.inkscape.org/) -->

<svg
   xmlns:dc="http://purl.org/dc/elements/1.1/"
   xmlns:cc="http://creativecommons.org/ns#"
   xmlns:rdf="http://www.w3.org/1999/02/22-rdf-syntax-ns#"
   xmlns:svg="http://www.w3.org/2000/svg"
   xmlns="http://www.w3.org/2000/svg"
   version="1.1"
   width="64"
   height="64"
   id="svg3031">
  <defs
     id="defs3033">
    <linearGradient
       x1="75.405998"
       y1="239.25"
       x2="342.81"
       y2="239.25"
       id="linearGradient3029"
       gradientUnits="userSpaceOnUse"
       gradientTransform="matrix(0.2383,0,0,0.33913,-17.832,-49.137)">
      <stop
         id="stop8529"
         style="stop-color:#e15a00;stop-opacity:1"
         offset="0" />
      <stop
         id="stop8531"
         style="stop-color:#ff9f5e;stop-opacity:1"
         offset="1" />
    </linearGradient>
    <linearGradient
       x1="75.405998"
       y1="239.25"
       x2="342.81"
       y2="239.25"
       id="linearGradient3031"
       gradientUnits="userSpaceOnUse"
       gradientTransform="matrix(0.2383,0,0,0.33913,-17.832,-49.137)">
      <stop
         id="stop8537"
         style="stop-color:#ff9f5e;stop-opacity:1"
         offset="0" />
      <stop
         id="stop8539"
         style="stop-color:#e15a00;stop-opacity:1"
         offset="1" />
    </linearGradient>
  </defs>
  <metadata
     id="metadata3036">
    <rdf:RDF>
      <cc:Work
         rdf:about="">
        <dc:format>image/svg+xml</dc:format>
        <dc:type
           rdf:resource="http://purl.org/dc/dcmitype/StillImage" />
        <dc:title></dc:title>
      </cc:Work>
    </rdf:RDF>
  </metadata>
  <path
     d="m 32.004,0.85285 c -17.192,0 -31.151,9.927 -31.151,22.16 0,8.7841 7.1977,16.382 17.62,19.966 -1.3768,11.699 -10.694,20.168 -10.694,20.168 0,0 16.666,-4.7802 20.047,-18.175 1.3664,0.13051 2.7614,0.20136 4.1778,0.20136 17.192,0 31.143,-9.927 31.143,-22.16 0,-12.233 -13.951,-22.16 -31.143,-22.16 z"
     id="path7605"
     style="fill:url(#linearGradient3029);stroke:url(#linearGradient3031);stroke-width:1.70570004" />
  <g
     transform="matrix(0.19549,0,0,0.19619,-63.658,-67.443)"
     id="g3804"
     style="fill:#ffffff">
    <path
       d="m 385,200.64 a 24.643,23.929 0 1 1 -49.286,0 24.643,23.929 0 1 1 49.286,0 z"
       transform="matrix(0.86996,0,0,0.86996,135.16,330.53)"
       id="path5270" />
    <path
       d="m 427.83,455.06 -0.0728,-30.273 c 64.706,3.3754 100.62,49.673 101.5,101.94 h -30.318 c -0.50301,-45.941 -31.741,-69.995 -71.109,-71.666 z"
       id="path5805"
       style="fill-rule:evenodd" />
    <path
       d="m 428.2,404.57 -0.87879,-30.758 c 99.428,4.6163 152.68,76.768 153.35,152.91 l -31.197,-0.4394 c 1.37,-48.7 -34.66,-120.26 -121.27,-121.71 z"
       id="path5807"
       style="fill-rule:evenodd" />
  </g>
</svg>
