<?xml version="1.0" encoding="UTF-8" standalone="no"?>
<!-- Created with Inkscape (http://www.inkscape.org/) -->

<svg
   xmlns:dc="http://purl.org/dc/elements/1.1/"
   xmlns:cc="http://creativecommons.org/ns#"
   xmlns:rdf="http://www.w3.org/1999/02/22-rdf-syntax-ns#"
   xmlns:svg="http://www.w3.org/2000/svg"
   xmlns="http://www.w3.org/2000/svg"
   xmlns:xlink="http://www.w3.org/1999/xlink"
   version="1.1"
   width="64"
   height="64"
   id="svg3031">
  <defs
     id="defs3033">
    <radialGradient
       cx="237.79366"
       cy="414.23291"
       r="132.60661"
       fx="237.79366"
       fy="414.23291"
       id="radialGradient2169"
       xlink:href="#linearGradient8551"
       gradientUnits="userSpaceOnUse"
       gradientTransform="matrix(1,0,0,0.12392,0,362.9011)" />
    <linearGradient
       id="linearGradient8551">
      <stop
         id="stop8553"
         style="stop-color:#939393;stop-opacity:1"
         offset="0" />
      <stop
         id="stop8595"
         style="stop-color:#a6a6a6;stop-opacity:0.62886596"
         offset="0.5" />
      <stop
         id="stop8555"
         style="stop-color:#ffffff;stop-opacity:0"
         offset="1" />
    </linearGradient>
    <linearGradient
       x1="75.40625"
       y1="239.25"
       x2="342.8125"
       y2="239.25"
       id="linearGradient2171"
       xlink:href="#linearGradient8527"
       gradientUnits="userSpaceOnUse"
       gradientTransform="matrix(0.957345,0,0,0.957345,31.04937,63.40204)" />
    <linearGradient
       id="linearGradient8527">
      <stop
         id="stop8529"
         style="stop-color:#204a88;stop-opacity:1"
         offset="0" />
      <stop
         id="stop8531"
         style="stop-color:#71a0cf;stop-opacity:1"
         offset="1" />
    </linearGradient>
    <linearGradient
       x1="75.40625"
       y1="239.25"
       x2="342.8125"
       y2="239.25"
       id="linearGradient2173"
       xlink:href="#linearGradient8535"
       gradientUnits="userSpaceOnUse"
       gradientTransform="matrix(0.957345,0,0,0.957345,31.04937,63.40204)" />
    <linearGradient
       id="linearGradient8535">
      <stop
         id="stop8537"
         style="stop-color:#71a0cf;stop-opacity:1"
         offset="0" />
      <stop
         id="stop8539"
         style="stop-color:#204988;stop-opacity:1"
         offset="1" />
    </linearGradient>
    <linearGradient
       x1="75.40625"
       y1="239.25"
       x2="342.8125"
       y2="239.25"
       id="linearGradient3095"
       xlink:href="#linearGradient8527"
       gradientUnits="userSpaceOnUse"
       gradientTransform="matrix(0.957345,0,0,0.957345,31.04937,63.40204)" />
    <linearGradient
       x1="75.40625"
       y1="239.25"
       x2="342.8125"
       y2="239.25"
       id="linearGradient3097"
       xlink:href="#linearGradient8535"
       gradientUnits="userSpaceOnUse"
       gradientTransform="matrix(0.957345,0,0,0.957345,31.04937,63.40204)" />
    <linearGradient
       x1="-344.15295"
       y1="274.711"
       x2="-395.84943"
       y2="425.39993"
       id="linearGradient2449"
       xlink:href="#linearGradient2555"
       gradientUnits="userSpaceOnUse"
       gradientTransform="matrix(-0.5914583,0,0,0.5914584,210.0216,142.2324)" />
    <linearGradient
       id="linearGradient2555">
      <stop
         id="stop2557"
         style="stop-color:#ffffff;stop-opacity:1"
         offset="0" />
      <stop
         id="stop2559"
         style="stop-color:#ffffff;stop-opacity:0"
         offset="1" />
    </linearGradient>
  </defs>
  <metadata
     id="metadata3036">
    <rdf:RDF>
      <cc:Work
         rdf:about="">
        <dc:format>image/svg+xml</dc:format>
        <dc:type
           rdf:resource="http://purl.org/dc/dcmitype/StillImage" />
        <dc:title></dc:title>
      </cc:Work>
    </rdf:RDF>
  </metadata>
  <g
     id="layer1">
    <g
       transform="matrix(0.21036679,0,0,0.27963946,-16.645038,-56.38891)"
       id="g2159">
      <path
         d="m 367.40027,414.23291 a 129.60661,13.432618 0 1 1 -259.21323,0 129.60661,13.432618 0 1 1 259.21323,0 z"
         transform="matrix(1.173669,0,0,1.741237,-47.85189,-314.1523)"
         id="path8549"
         style="fill:url(#radialGradient2169);fill-opacity:1;stroke:none" />
      <path
         d="m 231.25411,204.52065 c -69.06674,0 -125.14293,28.02314 -125.14293,62.5565 0,24.79695 28.91542,46.24386 70.78369,56.36368 -5.53118,33.0263 -42.96085,56.93211 -42.96085,56.93211 0,0 66.95298,-13.49413 80.53664,-51.30771 5.48928,0.36842 11.09347,0.56843 16.78345,0.56843 69.06673,0 125.11301,-28.02313 125.11301,-62.55651 0,-34.53336 -56.04628,-62.5565 -125.11301,-62.5565 z"
         id="path7605"
         style="fill:url(#linearGradient3095);fill-opacity:1;stroke:url(#linearGradient3097);stroke-width:5.7440691;stroke-linecap:butt;stroke-linejoin:miter;stroke-miterlimit:4;stroke-opacity:1;stroke-dasharray:none;stroke-dashoffset:0" />
    </g>
    <g
       transform="matrix(0.10212425,0,0,0.1021322,-19.229808,-27.586095)"
       id="g2991">
      <rect
         width="235.00784"
         height="234.98955"
         rx="35.487503"
         ry="35.487503"
         x="-619.14587"
         y="328.84921"
         transform="scale(-1,1)"
         id="rect1942"
         style="fill:#e15a00;fill-opacity:1;fill-rule:evenodd;stroke:none" />
      <path
         d="m 557.05665,338.89518 -110.82944,0 c -29.33688,0 -52.95465,23.80974 -52.95465,53.38507 l 0,108.12736 c 0.9496,23.08605 4.60229,8.49154 11.55502,-17.07471 8.08056,-29.71315 34.39648,-55.68287 66.44461,-75.1457 24.46133,-14.85525 51.84109,-24.34125 101.67955,-25.24367 28.26482,-0.51176 25.7695,-36.68291 -15.89509,-44.04835 z"
         id="path1950"
         style="opacity:0.60747663;fill:url(#linearGradient2449);fill-opacity:1;fill-rule:evenodd;stroke:none" />
      <path
         d="m 385.00001,200.64285 a 24.642859,23.928572 0 1 1 -49.28572,0 24.642859,23.928572 0 1 1 49.28572,0 z"
         transform="matrix(0.8699574,0,0,0.8699574,135.15631,330.52863)"
         id="path5270"
         style="fill:#ffffff;fill-opacity:1;fill-rule:nonzero;stroke:none" />
      <path
         d="m 427.83482,455.05681 -0.0728,-30.27316 c 64.70607,3.37545 100.61878,49.67317 101.50021,101.93961 l -30.31824,0 c -0.50301,-45.94077 -31.74065,-69.99522 -71.10918,-71.66645 z"
         id="path5805"
         style="fill:#ffffff;fill-opacity:1;fill-rule:evenodd;stroke:none" />
      <path
         d="m 428.20143,404.57149 -0.87879,-30.75764 c 99.4284,4.61626 152.67764,76.76812 153.34879,152.90941 l -31.19703,-0.4394 C 550.83932,477.58037 514.80871,406.01731 428.20143,404.57149 z"
         id="path5807"
         style="fill:#ffffff;fill-opacity:1;fill-rule:evenodd;stroke:none" />
    </g>
  </g>
</svg>
